if (_typeface_js && _typeface_js.loadFace) _typeface_js.loadFace({"glyphs":{"0":{"ha":915,"x_min":0,"x_max":0,"o":"m 457 -18 b 871 486 717 -18 871 189 b 458 989 871 783 718 989 b 43 486 199 989 43 783 b 457 -18 43 189 196 -18 z m 458 164 b 239 486 318 164 239 296 b 458 807 239 676 318 807 b 678 486 597 807 678 676 b 458 164 678 296 597 164 z "},"1":{"ha":504,"x_min":0,"x_max":0,"o":"m 221 0 l 419 0 l 419 972 l 36 972 l 36 806 l 221 806 z "},"2":{"ha":906,"x_min":0,"x_max":0,"o":"m 64 0 l 818 0 l 818 164 l 442 164 l 438 175 l 611 364 b 786 703 731 500 786 606 b 442 989 786 854 672 989 b 76 875 253 989 147 925 l 119 719 b 376 821 160 751 236 821 b 558 669 489 821 558 754 b 408 415 558 603 518 531 l 64 47 z "},"3":{"ha":892,"x_min":0,"x_max":0,"o":"m 406 -19 b 832 324 604 -18 832 121 b 511 606 832 497 713 606 l 465 606 l 465 617 l 774 938 l 774 972 l 101 972 l 101 824 l 454 824 l 460 811 l 188 531 l 188 486 l 386 486 b 633 331 543 486 633 440 b 375 156 633 207 489 156 b 94 236 271 156 175 189 l 29 85 b 406 -19 114 32 246 -19 z "},"4":{"ha":831,"x_min":0,"x_max":0,"o":"m 140 274 l 140 274 b 183 204 176 274 183 249 b 140 135 183 161 176 135 b 128 136 136 135 131 135 l 128 272 b 140 274 132 274 136 274 z m 351 224 l 296 224 l 296 271 l 361 271 l 361 306 l 256 306 l 256 104 l 361 104 l 361 138 l 296 138 l 296 190 l 351 190 z m 138 101 l 138 101 b 224 204 200 101 224 133 b 139 308 224 274 201 308 b 88 303 125 308 106 306 l 88 104 b 138 101 106 101 126 101 z m 397 306 l 397 306 b 388 104 393 257 389 169 l 426 104 b 429 249 426 151 428 201 l 431 249 l 458 135 l 496 135 l 524 249 b 528 104 526 201 528 151 l 568 104 b 560 306 565 169 563 257 l 504 306 l 478 194 l 451 306 z m 669 101 l 669 101 b 744 204 725 101 744 133 b 669 308 744 275 725 308 b 596 204 614 308 596 275 b 669 101 596 133 614 101 z m 669 274 b 704 204 699 274 704 250 b 669 135 704 160 699 135 b 636 204 642 135 636 160 b 669 274 636 250 642 274 z m 656 689 l 656 689 b 439 429 540 689 439 429 b 669 529 497 486 569 518 b 742 601 699 533 742 558 b 656 689 742 631 728 689 z m 193 617 l 193 617 b 107 529 136 617 107 574 b 193 457 107 486 150 457 b 410 357 281 457 353 429 b 193 617 410 357 324 617 z m 436 824 l 436 824 b 313 822 394 864 343 853 b 325 710 283 790 294 740 b 410 486 388 650 419 578 b 436 824 410 486 529 733 z "},"5":{"ha":904,"x_min":0,"x_max":0,"o":"m 431 -18 b 839 336 701 -18 839 140 b 479 635 839 531 706 638 b 290 599 399 633 344 619 l 290 819 l 758 819 l 758 972 l 103 972 l 103 435 b 392 499 193 475 288 499 b 640 332 540 499 640 429 b 381 154 640 239 563 154 b 90 225 260 154 153 192 l 60 71 b 431 -18 129 26 299 -18 z "},"6":{"ha":917,"x_min":0,"x_max":0,"o":"m 457 -18 b 865 332 701 -18 864 135 b 521 663 865 524 718 663 b 411 643 479 663 447 656 l 639 972 l 422 972 l 146 572 b 53 333 99 506 53 413 b 457 -18 53 131 221 -18 z m 457 146 b 246 343 338 146 246 229 b 457 538 246 456 338 538 b 669 342 576 538 669 454 b 457 146 669 229 576 146 z "},"7":{"ha":886,"x_min":0,"x_max":0,"o":"m 394 -1 l 825 942 l 825 972 l 88 972 l 88 803 l 525 803 l 531 792 l 163 0 z "},"8":{"ha":928,"x_min":0,"x_max":0,"o":"m 463 -18 b 869 258 704 -18 869 94 b 643 500 869 376 783 475 l 643 511 b 829 733 754 536 829 629 b 463 989 829 881 696 989 b 96 733 232 989 96 881 b 283 511 96 629 171 536 l 283 500 b 58 258 143 475 58 376 b 463 -18 58 94 222 -18 z m 463 558 b 285 697 357 558 285 617 b 463 838 285 779 358 838 b 643 697 568 838 643 779 b 463 558 643 617 568 558 z m 463 143 b 258 299 344 143 258 207 b 463 453 258 388 344 453 b 667 299 583 453 667 388 b 463 143 667 207 582 143 z "},"9":{"ha":917,"x_min":0,"x_max":0,"o":"m 278 -11 l 494 -11 l 775 394 b 865 628 822 461 865 547 b 460 978 865 829 696 978 b 53 629 217 978 54 826 b 396 300 53 438 199 300 b 506 318 438 300 469 306 z m 460 417 b 247 617 340 417 247 503 b 460 815 247 729 340 815 b 672 615 579 815 672 729 b 460 417 672 503 579 417 z "}," ":{"ha":343,"x_min":0,"x_max":0,"o":""},"!":{"ha":831,"x_min":0,"x_max":0,"o":"m 140 274 l 140 274 b 183 204 176 274 183 249 b 140 135 183 161 176 135 b 128 136 136 135 131 135 l 128 272 b 140 274 132 274 136 274 z m 351 224 l 296 224 l 296 271 l 361 271 l 361 306 l 256 306 l 256 104 l 361 104 l 361 138 l 296 138 l 296 190 l 351 190 z m 138 101 l 138 101 b 224 204 200 101 224 133 b 139 308 224 274 201 308 b 88 303 125 308 106 306 l 88 104 b 138 101 106 101 126 101 z m 397 306 l 397 306 b 388 104 393 257 389 169 l 426 104 b 429 249 426 151 428 201 l 431 249 l 458 135 l 496 135 l 524 249 b 528 104 526 201 528 151 l 568 104 b 560 306 565 169 563 257 l 504 306 l 478 194 l 451 306 z m 669 101 l 669 101 b 744 204 725 101 744 133 b 669 308 744 275 725 308 b 596 204 614 308 596 275 b 669 101 596 133 614 101 z m 669 274 b 704 204 699 274 704 250 b 669 135 704 160 699 135 b 636 204 642 135 636 160 b 669 274 636 250 642 274 z m 656 689 l 656 689 b 439 429 540 689 439 429 b 669 529 497 486 569 518 b 742 601 699 533 742 558 b 656 689 742 631 728 689 z m 193 617 l 193 617 b 107 529 136 617 107 574 b 193 457 107 486 150 457 b 410 357 281 457 353 429 b 193 617 410 357 324 617 z m 436 824 l 436 824 b 313 822 394 864 343 853 b 325 710 283 790 294 740 b 410 486 388 650 419 578 b 436 824 410 486 529 733 z "},"\"":{"ha":831,"x_min":0,"x_max":0,"o":"m 140 274 l 140 274 b 183 204 176 274 183 249 b 140 135 183 161 176 135 b 128 136 136 135 131 135 l 128 272 b 140 274 132 274 136 274 z m 351 224 l 296 224 l 296 271 l 361 271 l 361 306 l 256 306 l 256 104 l 361 104 l 361 138 l 296 138 l 296 190 l 351 190 z m 138 101 l 138 101 b 224 204 200 101 224 133 b 139 308 224 274 201 308 b 88 303 125 308 106 306 l 88 104 b 138 101 106 101 126 101 z m 397 306 l 397 306 b 388 104 393 257 389 169 l 426 104 b 429 249 426 151 428 201 l 431 249 l 458 135 l 496 135 l 524 249 b 528 104 526 201 528 151 l 568 104 b 560 306 565 169 563 257 l 504 306 l 478 194 l 451 306 z m 669 101 l 669 101 b 744 204 725 101 744 133 b 669 308 744 275 725 308 b 596 204 614 308 596 275 b 669 101 596 133 614 101 z m 669 274 b 704 204 699 274 704 250 b 669 135 704 160 699 135 b 636 204 642 135 636 160 b 669 274 636 250 642 274 z m 656 689 l 656 689 b 439 429 540 689 439 429 b 669 529 497 486 569 518 b 742 601 699 533 742 558 b 656 689 742 631 728 689 z m 193 617 l 193 617 b 107 529 136 617 107 574 b 193 457 107 486 150 457 b 410 357 281 457 353 429 b 193 617 410 357 324 617 z m 436 824 l 436 824 b 313 822 394 864 343 853 b 325 710 283 790 294 740 b 410 486 388 650 419 578 b 436 824 410 486 529 733 z "},"#":{"ha":831,"x_min":0,"x_max":0,"o":"m 140 274 l 140 274 b 183 204 176 274 183 249 b 140 135 183 161 176 135 b 128 136 136 135 131 135 l 128 272 b 140 274 132 274 136 274 z m 351 224 l 296 224 l 296 271 l 361 271 l 361 306 l 256 306 l 256 104 l 361 104 l 361 138 l 296 138 l 296 190 l 351 190 z m 138 101 l 138 101 b 224 204 200 101 224 133 b 139 308 224 274 201 308 b 88 303 125 308 106 306 l 88 104 b 138 101 106 101 126 101 z m 397 306 l 397 306 b 388 104 393 257 389 169 l 426 104 b 429 249 426 151 428 201 l 431 249 l 458 135 l 496 135 l 524 249 b 528 104 526 201 528 151 l 568 104 b 560 306 565 169 563 257 l 504 306 l 478 194 l 451 306 z m 669 101 l 669 101 b 744 204 725 101 744 133 b 669 308 744 275 725 308 b 596 204 614 308 596 275 b 669 101 596 133 614 101 z m 669 274 b 704 204 699 274 704 250 b 669 135 704 160 699 135 b 636 204 642 135 636 160 b 669 274 636 250 642 274 z m 656 689 l 656 689 b 439 429 540 689 439 429 b 669 529 497 486 569 518 b 742 601 699 533 742 558 b 656 689 742 631 728 689 z m 193 617 l 193 617 b 107 529 136 617 107 574 b 193 457 107 486 150 457 b 410 357 281 457 353 429 b 193 617 410 357 324 617 z m 436 824 l 436 824 b 313 822 394 864 343 853 b 325 710 283 790 294 740 b 410 486 388 650 419 578 b 436 824 410 486 529 733 z "},"$":{"ha":831,"x_min":0,"x_max":0,"o":"m 140 274 l 140 274 b 183 204 176 274 183 249 b 140 135 183 161 176 135 b 128 136 136 135 131 135 l 128 272 b 140 274 132 274 136 274 z m 351 224 l 296 224 l 296 271 l 361 271 l 361 306 l 256 306 l 256 104 l 361 104 l 361 138 l 296 138 l 296 190 l 351 190 z m 138 101 l 138 101 b 224 204 200 101 224 133 b 139 308 224 274 201 308 b 88 303 125 308 106 306 l 88 104 b 138 101 106 101 126 101 z m 397 306 l 397 306 b 388 104 393 257 389 169 l 426 104 b 429 249 426 151 428 201 l 431 249 l 458 135 l 496 135 l 524 249 b 528 104 526 201 528 151 l 568 104 b 560 306 565 169 563 257 l 504 306 l 478 194 l 451 306 z m 669 101 l 669 101 b 744 204 725 101 744 133 b 669 308 744 275 725 308 b 596 204 614 308 596 275 b 669 101 596 133 614 101 z m 669 274 b 704 204 699 274 704 250 b 669 135 704 160 699 135 b 636 204 642 135 636 160 b 669 274 636 250 642 274 z m 656 689 l 656 689 b 439 429 540 689 439 429 b 669 529 497 486 569 518 b 742 601 699 533 742 558 b 656 689 742 631 728 689 z m 193 617 l 193 617 b 107 529 136 617 107 574 b 193 457 107 486 150 457 b 410 357 281 457 353 429 b 193 617 410 357 324 617 z m 436 824 l 436 824 b 313 822 394 864 343 853 b 325 710 283 790 294 740 b 410 486 388 650 419 578 b 436 824 410 486 529 733 z "},"%":{"ha":831,"x_min":0,"x_max":0,"o":"m 140 274 l 140 274 b 183 204 176 274 183 249 b 140 135 183 161 176 135 b 128 136 136 135 131 135 l 128 272 b 140 274 132 274 136 274 z m 351 224 l 296 224 l 296 271 l 361 271 l 361 306 l 256 306 l 256 104 l 361 104 l 361 138 l 296 138 l 296 190 l 351 190 z m 138 101 l 138 101 b 224 204 200 101 224 133 b 139 308 224 274 201 308 b 88 303 125 308 106 306 l 88 104 b 138 101 106 101 126 101 z m 397 306 l 397 306 b 388 104 393 257 389 169 l 426 104 b 429 249 426 151 428 201 l 431 249 l 458 135 l 496 135 l 524 249 b 528 104 526 201 528 151 l 568 104 b 560 306 565 169 563 257 l 504 306 l 478 194 l 451 306 z m 669 101 l 669 101 b 744 204 725 101 744 133 b 669 308 744 275 725 308 b 596 204 614 308 596 275 b 669 101 596 133 614 101 z m 669 274 b 704 204 699 274 704 250 b 669 135 704 160 699 135 b 636 204 642 135 636 160 b 669 274 636 250 642 274 z m 656 689 l 656 689 b 439 429 540 689 439 429 b 669 529 497 486 569 518 b 742 601 699 533 742 558 b 656 689 742 631 728 689 z m 193 617 l 193 617 b 107 529 136 617 107 574 b 193 457 107 486 150 457 b 410 357 281 457 353 429 b 193 617 410 357 324 617 z m 436 824 l 436 824 b 313 822 394 864 343 853 b 325 710 283 790 294 740 b 410 486 388 650 419 578 b 436 824 410 486 529 733 z "},"&":{"ha":831,"x_min":0,"x_max":0,"o":"m 140 274 l 140 274 b 183 204 176 274 183 249 b 140 135 183 161 176 135 b 128 136 136 135 131 135 l 128 272 b 140 274 132 274 136 274 z m 351 224 l 296 224 l 296 271 l 361 271 l 361 306 l 256 306 l 256 104 l 361 104 l 361 138 l 296 138 l 296 190 l 351 190 z m 138 101 l 138 101 b 224 204 200 101 224 133 b 139 308 224 274 201 308 b 88 303 125 308 106 306 l 88 104 b 138 101 106 101 126 101 z m 397 306 l 397 306 b 388 104 393 257 389 169 l 426 104 b 429 249 426 151 428 201 l 431 249 l 458 135 l 496 135 l 524 249 b 528 104 526 201 528 151 l 568 104 b 560 306 565 169 563 257 l 504 306 l 478 194 l 451 306 z m 669 101 l 669 101 b 744 204 725 101 744 133 b 669 308 744 275 725 308 b 596 204 614 308 596 275 b 669 101 596 133 614 101 z m 669 274 b 704 204 699 274 704 250 b 669 135 704 160 699 135 b 636 204 642 135 636 160 b 669 274 636 250 642 274 z m 656 689 l 656 689 b 439 429 540 689 439 429 b 669 529 497 486 569 518 b 742 601 699 533 742 558 b 656 689 742 631 728 689 z m 193 617 l 193 617 b 107 529 136 617 107 574 b 193 457 107 486 150 457 b 410 357 281 457 353 429 b 193 617 410 357 324 617 z m 436 824 l 436 824 b 313 822 394 864 343 853 b 325 710 283 790 294 740 b 410 486 388 650 419 578 b 436 824 410 486 529 733 z "},"'":{"ha":831,"x_min":0,"x_max":0,"o":"m 140 274 l 140 274 b 183 204 176 274 183 249 b 140 135 183 161 176 135 b 128 136 136 135 131 135 l 128 272 b 140 274 132 274 136 274 z m 351 224 l 296 224 l 296 271 l 361 271 l 361 306 l 256 306 l 256 104 l 361 104 l 361 138 l 296 138 l 296 190 l 351 190 z m 138 101 l 138 101 b 224 204 200 101 224 133 b 139 308 224 274 201 308 b 88 303 125 308 106 306 l 88 104 b 138 101 106 101 126 101 z m 397 306 l 397 306 b 388 104 393 257 389 169 l 426 104 b 429 249 426 151 428 201 l 431 249 l 458 135 l 496 135 l 524 249 b 528 104 526 201 528 151 l 568 104 b 560 306 565 169 563 257 l 504 306 l 478 194 l 451 306 z m 669 101 l 669 101 b 744 204 725 101 744 133 b 669 308 744 275 725 308 b 596 204 614 308 596 275 b 669 101 596 133 614 101 z m 669 274 b 704 204 699 274 704 250 b 669 135 704 160 699 135 b 636 204 642 135 636 160 b 669 274 636 250 642 274 z m 656 689 l 656 689 b 439 429 540 689 439 429 b 669 529 497 486 569 518 b 742 601 699 533 742 558 b 656 689 742 631 728 689 z m 193 617 l 193 617 b 107 529 136 617 107 574 b 193 457 107 486 150 457 b 410 357 281 457 353 429 b 193 617 410 357 324 617 z m 436 824 l 436 824 b 313 822 394 864 343 853 b 325 710 283 790 294 740 b 410 486 388 650 419 578 b 436 824 410 486 529 733 z "},"(":{"ha":831,"x_min":0,"x_max":0,"o":"m 140 274 l 140 274 b 183 204 176 274 183 249 b 140 135 183 161 176 135 b 128 136 136 135 131 135 l 128 272 b 140 274 132 274 136 274 z m 351 224 l 296 224 l 296 271 l 361 271 l 361 306 l 256 306 l 256 104 l 361 104 l 361 138 l 296 138 l 296 190 l 351 190 z m 138 101 l 138 101 b 224 204 200 101 224 133 b 139 308 224 274 201 308 b 88 303 125 308 106 306 l 88 104 b 138 101 106 101 126 101 z m 397 306 l 397 306 b 388 104 393 257 389 169 l 426 104 b 429 249 426 151 428 201 l 431 249 l 458 135 l 496 135 l 524 249 b 528 104 526 201 528 151 l 568 104 b 560 306 565 169 563 257 l 504 306 l 478 194 l 451 306 z m 669 101 l 669 101 b 744 204 725 101 744 133 b 669 308 744 275 725 308 b 596 204 614 308 596 275 b 669 101 596 133 614 101 z m 669 274 b 704 204 699 274 704 250 b 669 135 704 160 699 135 b 636 204 642 135 636 160 b 669 274 636 250 642 274 z m 656 689 l 656 689 b 439 429 540 689 439 429 b 669 529 497 486 569 518 b 742 601 699 533 742 558 b 656 689 742 631 728 689 z m 193 617 l 193 617 b 107 529 136 617 107 574 b 193 457 107 486 150 457 b 410 357 281 457 353 429 b 193 617 410 357 324 617 z m 436 824 l 436 824 b 313 822 394 864 343 853 b 325 710 283 790 294 740 b 410 486 388 650 419 578 b 436 824 410 486 529 733 z "},")":{"ha":831,"x_min":0,"x_max":0,"o":"m 140 274 l 140 274 b 183 204 176 274 183 249 b 140 135 183 161 176 135 b 128 136 136 135 131 135 l 128 272 b 140 274 132 274 136 274 z m 351 224 l 296 224 l 296 271 l 361 271 l 361 306 l 256 306 l 256 104 l 361 104 l 361 138 l 296 138 l 296 190 l 351 190 z m 138 101 l 138 101 b 224 204 200 101 224 133 b 139 308 224 274 201 308 b 88 303 125 308 106 306 l 88 104 b 138 101 106 101 126 101 z m 397 306 l 397 306 b 388 104 393 257 389 169 l 426 104 b 429 249 426 151 428 201 l 431 249 l 458 135 l 496 135 l 524 249 b 528 104 526 201 528 151 l 568 104 b 560 306 565 169 563 257 l 504 306 l 478 194 l 451 306 z m 669 101 l 669 101 b 744 204 725 101 744 133 b 669 308 744 275 725 308 b 596 204 614 308 596 275 b 669 101 596 133 614 101 z m 669 274 b 704 204 699 274 704 250 b 669 135 704 160 699 135 b 636 204 642 135 636 160 b 669 274 636 250 642 274 z m 656 689 l 656 689 b 439 429 540 689 439 429 b 669 529 497 486 569 518 b 742 601 699 533 742 558 b 656 689 742 631 728 689 z m 193 617 l 193 617 b 107 529 136 617 107 574 b 193 457 107 486 150 457 b 410 357 281 457 353 429 b 193 617 410 357 324 617 z m 436 824 l 436 824 b 313 822 394 864 343 853 b 325 710 283 790 294 740 b 410 486 388 650 419 578 b 436 824 410 486 529 733 z "},"*":{"ha":831,"x_min":0,"x_max":0,"o":"m 140 274 l 140 274 b 183 204 176 274 183 249 b 140 135 183 161 176 135 b 128 136 136 135 131 135 l 128 272 b 140 274 132 274 136 274 z m 351 224 l 296 224 l 296 271 l 361 271 l 361 306 l 256 306 l 256 104 l 361 104 l 361 138 l 296 138 l 296 190 l 351 190 z m 138 101 l 138 101 b 224 204 200 101 224 133 b 139 308 224 274 201 308 b 88 303 125 308 106 306 l 88 104 b 138 101 106 101 126 101 z m 397 306 l 397 306 b 388 104 393 257 389 169 l 426 104 b 429 249 426 151 428 201 l 431 249 l 458 135 l 496 135 l 524 249 b 528 104 526 201 528 151 l 568 104 b 560 306 565 169 563 257 l 504 306 l 478 194 l 451 306 z m 669 101 l 669 101 b 744 204 725 101 744 133 b 669 308 744 275 725 308 b 596 204 614 308 596 275 b 669 101 596 133 614 101 z m 669 274 b 704 204 699 274 704 250 b 669 135 704 160 699 135 b 636 204 642 135 636 160 b 669 274 636 250 642 274 z m 656 689 l 656 689 b 439 429 540 689 439 429 b 669 529 497 486 569 518 b 742 601 699 533 742 558 b 656 689 742 631 728 689 z m 193 617 l 193 617 b 107 529 136 617 107 574 b 193 457 107 486 150 457 b 410 357 281 457 353 429 b 193 617 410 357 324 617 z m 436 824 l 436 824 b 313 822 394 864 343 853 b 325 710 283 790 294 740 b 410 486 388 650 419 578 b 436 824 410 486 529 733 z "},"+":{"ha":831,"x_min":0,"x_max":0,"o":"m 140 274 l 140 274 b 183 204 176 274 183 249 b 140 135 183 161 176 135 b 128 136 136 135 131 135 l 128 272 b 140 274 132 274 136 274 z m 351 224 l 296 224 l 296 271 l 361 271 l 361 306 l 256 306 l 256 104 l 361 104 l 361 138 l 296 138 l 296 190 l 351 190 z m 138 101 l 138 101 b 224 204 200 101 224 133 b 139 308 224 274 201 308 b 88 303 125 308 106 306 l 88 104 b 138 101 106 101 126 101 z m 397 306 l 397 306 b 388 104 393 257 389 169 l 426 104 b 429 249 426 151 428 201 l 431 249 l 458 135 l 496 135 l 524 249 b 528 104 526 201 528 151 l 568 104 b 560 306 565 169 563 257 l 504 306 l 478 194 l 451 306 z m 669 101 l 669 101 b 744 204 725 101 744 133 b 669 308 744 275 725 308 b 596 204 614 308 596 275 b 669 101 596 133 614 101 z m 669 274 b 704 204 699 274 704 250 b 669 135 704 160 699 135 b 636 204 642 135 636 160 b 669 274 636 250 642 274 z m 656 689 l 656 689 b 439 429 540 689 439 429 b 669 529 497 486 569 518 b 742 601 699 533 742 558 b 656 689 742 631 728 689 z m 193 617 l 193 617 b 107 529 136 617 107 574 b 193 457 107 486 150 457 b 410 357 281 457 353 429 b 193 617 410 357 324 617 z m 436 824 l 436 824 b 313 822 394 864 343 853 b 325 710 283 790 294 740 b 410 486 388 650 419 578 b 436 824 410 486 529 733 z "},",":{"ha":308,"x_min":0,"x_max":0,"o":"m 126 -176 l 221 7 b 243 76 232 26 243 51 b 154 164 243 126 201 164 b 65 78 107 164 65 126 b 124 -4 65 38 89 10 l 67 -164 z "},"-":{"ha":831,"x_min":0,"x_max":0,"o":"m 140 274 l 140 274 b 183 204 176 274 183 249 b 140 135 183 161 176 135 b 128 136 136 135 131 135 l 128 272 b 140 274 132 274 136 274 z m 351 224 l 296 224 l 296 271 l 361 271 l 361 306 l 256 306 l 256 104 l 361 104 l 361 138 l 296 138 l 296 190 l 351 190 z m 138 101 l 138 101 b 224 204 200 101 224 133 b 139 308 224 274 201 308 b 88 303 125 308 106 306 l 88 104 b 138 101 106 101 126 101 z m 397 306 l 397 306 b 388 104 393 257 389 169 l 426 104 b 429 249 426 151 428 201 l 431 249 l 458 135 l 496 135 l 524 249 b 528 104 526 201 528 151 l 568 104 b 560 306 565 169 563 257 l 504 306 l 478 194 l 451 306 z m 669 101 l 669 101 b 744 204 725 101 744 133 b 669 308 744 275 725 308 b 596 204 614 308 596 275 b 669 101 596 133 614 101 z m 669 274 b 704 204 699 274 704 250 b 669 135 704 160 699 135 b 636 204 642 135 636 160 b 669 274 636 250 642 274 z m 656 689 l 656 689 b 439 429 540 689 439 429 b 669 529 497 486 569 518 b 742 601 699 533 742 558 b 656 689 742 631 728 689 z m 193 617 l 193 617 b 107 529 136 617 107 574 b 193 457 107 486 150 457 b 410 357 281 457 353 429 b 193 617 410 357 324 617 z m 436 824 l 436 824 b 313 822 394 864 343 853 b 325 710 283 790 294 740 b 410 486 388 650 419 578 b 436 824 410 486 529 733 z "},".":{"ha":308,"x_min":0,"x_max":0,"o":"m 154 -12 b 243 76 201 -12 243 25 b 154 164 243 126 201 164 b 65 76 107 164 65 126 b 154 -12 65 25 107 -12 z "},"/":{"ha":831,"x_min":0,"x_max":0,"o":"m 140 274 l 140 274 b 183 204 176 274 183 249 b 140 135 183 161 176 135 b 128 136 136 135 131 135 l 128 272 b 140 274 132 274 136 274 z m 351 224 l 296 224 l 296 271 l 361 271 l 361 306 l 256 306 l 256 104 l 361 104 l 361 138 l 296 138 l 296 190 l 351 190 z m 138 101 l 138 101 b 224 204 200 101 224 133 b 139 308 224 274 201 308 b 88 303 125 308 106 306 l 88 104 b 138 101 106 101 126 101 z m 397 306 l 397 306 b 388 104 393 257 389 169 l 426 104 b 429 249 426 151 428 201 l 431 249 l 458 135 l 496 135 l 524 249 b 528 104 526 201 528 151 l 568 104 b 560 306 565 169 563 257 l 504 306 l 478 194 l 451 306 z m 669 101 l 669 101 b 744 204 725 101 744 133 b 669 308 744 275 725 308 b 596 204 614 308 596 275 b 669 101 596 133 614 101 z m 669 274 b 704 204 699 274 704 250 b 669 135 704 160 699 135 b 636 204 642 135 636 160 b 669 274 636 250 642 274 z m 656 689 l 656 689 b 439 429 540 689 439 429 b 669 529 497 486 569 518 b 742 601 699 533 742 558 b 656 689 742 631 728 689 z m 193 617 l 193 617 b 107 529 136 617 107 574 b 193 457 107 486 150 457 b 410 357 281 457 353 429 b 193 617 410 357 324 617 z m 436 824 l 436 824 b 313 822 394 864 343 853 b 325 710 283 790 294 740 b 410 486 388 650 419 578 b 436 824 410 486 529 733 z "},":":{"ha":294,"x_min":0,"x_max":0,"o":"m 161 335 b 249 424 207 335 249 374 b 161 514 249 476 207 514 b 71 424 114 514 71 476 b 161 335 71 374 114 335 z m 161 -12 b 249 76 207 -12 249 25 b 161 165 249 126 207 165 b 71 76 114 165 71 126 b 161 -12 71 25 114 -12 z "},";":{"ha":294,"x_min":0,"x_max":0,"o":"m 161 335 b 249 424 207 335 249 374 b 161 514 249 476 207 514 b 71 424 114 514 71 476 b 161 335 71 374 114 335 z m 133 -176 l 226 7 b 249 76 238 26 249 51 b 161 164 249 126 207 164 b 71 78 114 164 71 126 b 129 -4 71 38 96 10 l 72 -164 z "},"<":{"ha":831,"x_min":0,"x_max":0,"o":"m 140 274 l 140 274 b 183 204 176 274 183 249 b 140 135 183 161 176 135 b 128 136 136 135 131 135 l 128 272 b 140 274 132 274 136 274 z m 351 224 l 296 224 l 296 271 l 361 271 l 361 306 l 256 306 l 256 104 l 361 104 l 361 138 l 296 138 l 296 190 l 351 190 z m 138 101 l 138 101 b 224 204 200 101 224 133 b 139 308 224 274 201 308 b 88 303 125 308 106 306 l 88 104 b 138 101 106 101 126 101 z m 397 306 l 397 306 b 388 104 393 257 389 169 l 426 104 b 429 249 426 151 428 201 l 431 249 l 458 135 l 496 135 l 524 249 b 528 104 526 201 528 151 l 568 104 b 560 306 565 169 563 257 l 504 306 l 478 194 l 451 306 z m 669 101 l 669 101 b 744 204 725 101 744 133 b 669 308 744 275 725 308 b 596 204 614 308 596 275 b 669 101 596 133 614 101 z m 669 274 b 704 204 699 274 704 250 b 669 135 704 160 699 135 b 636 204 642 135 636 160 b 669 274 636 250 642 274 z m 656 689 l 656 689 b 439 429 540 689 439 429 b 669 529 497 486 569 518 b 742 601 699 533 742 558 b 656 689 742 631 728 689 z m 193 617 l 193 617 b 107 529 136 617 107 574 b 193 457 107 486 150 457 b 410 357 281 457 353 429 b 193 617 410 357 324 617 z m 436 824 l 436 824 b 313 822 394 864 343 853 b 325 710 283 790 294 740 b 410 486 388 650 419 578 b 436 824 410 486 529 733 z "},"=":{"ha":831,"x_min":0,"x_max":0,"o":"m 140 274 l 140 274 b 183 204 176 274 183 249 b 140 135 183 161 176 135 b 128 136 136 135 131 135 l 128 272 b 140 274 132 274 136 274 z m 351 224 l 296 224 l 296 271 l 361 271 l 361 306 l 256 306 l 256 104 l 361 104 l 361 138 l 296 138 l 296 190 l 351 190 z m 138 101 l 138 101 b 224 204 200 101 224 133 b 139 308 224 274 201 308 b 88 303 125 308 106 306 l 88 104 b 138 101 106 101 126 101 z m 397 306 l 397 306 b 388 104 393 257 389 169 l 426 104 b 429 249 426 151 428 201 l 431 249 l 458 135 l 496 135 l 524 249 b 528 104 526 201 528 151 l 568 104 b 560 306 565 169 563 257 l 504 306 l 478 194 l 451 306 z m 669 101 l 669 101 b 744 204 725 101 744 133 b 669 308 744 275 725 308 b 596 204 614 308 596 275 b 669 101 596 133 614 101 z m 669 274 b 704 204 699 274 704 250 b 669 135 704 160 699 135 b 636 204 642 135 636 160 b 669 274 636 250 642 274 z m 656 689 l 656 689 b 439 429 540 689 439 429 b 669 529 497 486 569 518 b 742 601 699 533 742 558 b 656 689 742 631 728 689 z m 193 617 l 193 617 b 107 529 136 617 107 574 b 193 457 107 486 150 457 b 410 357 281 457 353 429 b 193 617 410 357 324 617 z m 436 824 l 436 824 b 313 822 394 864 343 853 b 325 710 283 790 294 740 b 410 486 388 650 419 578 b 436 824 410 486 529 733 z "},">":{"ha":831,"x_min":0,"x_max":0,"o":"m 140 274 l 140 274 b 183 204 176 274 183 249 b 140 135 183 161 176 135 b 128 136 136 135 131 135 l 128 272 b 140 274 132 274 136 274 z m 351 224 l 296 224 l 296 271 l 361 271 l 361 306 l 256 306 l 256 104 l 361 104 l 361 138 l 296 138 l 296 190 l 351 190 z m 138 101 l 138 101 b 224 204 200 101 224 133 b 139 308 224 274 201 308 b 88 303 125 308 106 306 l 88 104 b 138 101 106 101 126 101 z m 397 306 l 397 306 b 388 104 393 257 389 169 l 426 104 b 429 249 426 151 428 201 l 431 249 l 458 135 l 496 135 l 524 249 b 528 104 526 201 528 151 l 568 104 b 560 306 565 169 563 257 l 504 306 l 478 194 l 451 306 z m 669 101 l 669 101 b 744 204 725 101 744 133 b 669 308 744 275 725 308 b 596 204 614 308 596 275 b 669 101 596 133 614 101 z m 669 274 b 704 204 699 274 704 250 b 669 135 704 160 699 135 b 636 204 642 135 636 160 b 669 274 636 250 642 274 z m 656 689 l 656 689 b 439 429 540 689 439 429 b 669 529 497 486 569 518 b 742 601 699 533 742 558 b 656 689 742 631 728 689 z m 193 617 l 193 617 b 107 529 136 617 107 574 b 193 457 107 486 150 457 b 410 357 281 457 353 429 b 193 617 410 357 324 617 z m 436 824 l 436 824 b 313 822 394 864 343 853 b 325 710 283 790 294 740 b 410 486 388 650 419 578 b 436 824 410 486 529 733 z "},"?":{"ha":672,"x_min":0,"x_max":0,"o":"m 225 267 l 353 267 l 353 454 b 613 719 510 457 613 571 b 313 989 613 890 501 989 b 46 857 211 989 92 944 l 89 756 b 294 863 132 833 207 863 b 468 703 397 863 468 807 b 289 538 468 606 397 538 l 225 538 z m 288 -12 b 388 74 346 -12 388 22 b 288 161 388 128 346 161 b 188 74 231 161 188 128 b 288 -12 188 22 231 -12 z "},"@":{"ha":831,"x_min":0,"x_max":0,"o":"m 140 274 l 140 274 b 183 204 176 274 183 249 b 140 135 183 161 176 135 b 128 136 136 135 131 135 l 128 272 b 140 274 132 274 136 274 z m 351 224 l 296 224 l 296 271 l 361 271 l 361 306 l 256 306 l 256 104 l 361 104 l 361 138 l 296 138 l 296 190 l 351 190 z m 138 101 l 138 101 b 224 204 200 101 224 133 b 139 308 224 274 201 308 b 88 303 125 308 106 306 l 88 104 b 138 101 106 101 126 101 z m 397 306 l 397 306 b 388 104 393 257 389 169 l 426 104 b 429 249 426 151 428 201 l 431 249 l 458 135 l 496 135 l 524 249 b 528 104 526 201 528 151 l 568 104 b 560 306 565 169 563 257 l 504 306 l 478 194 l 451 306 z m 669 101 l 669 101 b 744 204 725 101 744 133 b 669 308 744 275 725 308 b 596 204 614 308 596 275 b 669 101 596 133 614 101 z m 669 274 b 704 204 699 274 704 250 b 669 135 704 160 699 135 b 636 204 642 135 636 160 b 669 274 636 250 642 274 z m 656 689 l 656 689 b 439 429 540 689 439 429 b 669 529 497 486 569 518 b 742 601 699 533 742 558 b 656 689 742 631 728 689 z m 193 617 l 193 617 b 107 529 136 617 107 574 b 193 457 107 486 150 457 b 410 357 281 457 353 429 b 193 617 410 357 324 617 z m 436 824 l 436 824 b 313 822 394 864 343 853 b 325 710 283 790 294 740 b 410 486 388 650 419 578 b 436 824 410 486 529 733 z "},"A":{"ha":1082,"x_min":0,"x_max":0,"o":"m 3 0 l 228 0 l 285 122 l 799 122 l 856 0 l 1079 0 l 557 993 l 525 993 z m 360 281 l 536 633 l 546 633 l 724 281 z "},"B":{"ha":1031,"x_min":0,"x_max":0,"o":"m 631 -18 b 972 263 838 -18 972 96 b 724 511 972 393 878 488 l 724 521 b 919 739 844 547 919 628 b 636 972 919 881 801 972 l 85 972 l 85 0 l 100 0 b 254 19 147 13 188 19 b 631 -18 322 19 556 -18 z m 282 579 l 282 838 l 557 838 b 729 708 661 838 729 788 b 557 579 729 632 661 579 z m 567 143 b 282 161 467 144 350 160 l 282 439 l 576 439 b 772 299 694 439 772 383 b 567 143 772 208 701 143 z "},"C":{"ha":1011,"x_min":0,"x_max":0,"o":"m 617 -18 b 979 88 754 -18 888 22 l 979 297 b 613 163 892 221 736 163 b 257 483 403 163 257 292 b 603 813 257 671 401 813 b 801 746 683 813 749 788 l 932 874 b 594 989 858 939 733 989 b 56 482 285 989 56 771 b 617 -18 56 185 279 -18 z "},"D":{"ha":1075,"x_min":0,"x_max":0,"o":"m 571 -18 b 1017 483 861 -18 1017 203 b 511 972 1017 764 796 972 l 85 972 l 85 0 l 99 0 b 268 19 146 13 194 19 b 571 -18 375 19 442 -18 z m 549 164 b 282 182 454 164 375 188 l 282 796 l 522 796 b 822 486 693 796 822 668 b 549 164 822 307 719 164 z "},"E":{"ha":936,"x_min":0,"x_max":0,"o":"m 85 0 l 875 0 l 875 164 l 282 164 l 282 417 l 822 417 l 822 574 l 282 574 l 282 808 l 783 808 l 783 972 l 85 972 z "},"F":{"ha":874,"x_min":0,"x_max":0,"o":"m 85 0 l 282 0 l 282 407 l 731 407 l 731 569 l 282 569 l 282 814 l 835 814 l 835 972 l 85 972 z "},"G":{"ha":1172,"x_min":0,"x_max":0,"o":"m 590 -18 b 944 97 742 -18 864 31 l 950 97 l 992 0 l 1043 0 l 1043 399 l 1143 399 l 1143 560 l 593 560 l 593 399 l 863 399 l 863 278 b 599 160 806 206 715 160 b 257 476 410 160 257 283 b 596 814 257 663 401 814 b 878 708 718 814 822 765 l 935 868 b 571 989 860 936 746 989 b 56 478 281 989 56 761 b 590 -18 56 181 272 -18 z "},"H":{"ha":1051,"x_min":0,"x_max":0,"o":"m 85 0 l 282 0 l 282 396 l 771 396 l 771 0 l 968 0 l 968 972 l 771 972 l 771 565 l 282 565 l 282 972 l 85 972 z "},"I":{"ha":368,"x_min":0,"x_max":0,"o":"m 85 0 l 283 0 l 283 972 l 85 972 z "},"J":{"ha":715,"x_min":0,"x_max":0,"o":"m 244 -17 b 631 378 492 -17 631 128 l 631 972 l 47 972 l 47 821 l 435 821 l 435 425 b 192 168 435 254 340 168 b 22 210 128 168 71 185 l 15 28 b 244 -17 83 1 167 -17 z "},"K":{"ha":1042,"x_min":0,"x_max":0,"o":"m 85 0 l 282 0 l 282 390 l 344 479 b 485 533 385 510 435 533 b 638 419 543 533 608 497 l 722 196 b 828 0 747 126 778 46 l 1054 0 b 932 210 1000 63 960 135 l 818 492 b 597 667 779 603 701 667 b 496 640 556 667 524 657 l 482 632 l 472 640 l 499 682 b 729 825 561 788 636 825 b 911 760 808 825 861 800 l 942 929 b 735 989 897 960 821 989 b 340 718 582 989 431 913 l 293 622 l 282 622 l 282 972 l 85 972 z "},"L":{"ha":874,"x_min":0,"x_max":0,"o":"m 613 -18 b 851 10 692 -19 783 -8 l 851 186 b 625 156 785 167 699 156 b 282 176 513 156 421 204 b 276 600 360 390 276 460 b 489 829 276 747 368 829 b 689 750 574 829 638 801 l 715 899 b 443 989 650 953 549 989 b 79 629 221 989 79 856 b 135 271 79 506 138 374 b 67 7 132 165 103 93 l 75 0 b 297 24 140 10 207 24 b 613 -18 408 24 503 -17 z "},"M":{"ha":1239,"x_min":0,"x_max":0,"o":"m 33 0 l 236 0 l 382 549 l 390 549 l 606 163 l 633 163 l 849 558 l 858 558 l 1004 0 l 1206 0 l 953 989 l 919 989 l 625 478 l 615 478 l 321 989 l 288 989 z "},"N":{"ha":1053,"x_min":0,"x_max":0,"o":"m 939 -22 l 968 -22 l 968 972 l 781 972 l 781 376 l 772 375 l 114 993 l 85 993 l 85 0 l 272 0 l 272 596 l 282 596 z "},"O":{"ha":1135,"x_min":0,"x_max":0,"o":"m 567 -18 b 1079 485 864 -18 1079 193 b 567 989 1079 776 864 989 b 56 485 271 989 56 776 b 567 -18 56 193 271 -18 z m 567 160 b 257 485 389 160 257 294 b 567 813 257 676 389 813 b 878 485 747 813 878 676 b 567 160 878 294 747 160 z "},"P":{"ha":994,"x_min":0,"x_max":0,"o":"m 85 0 l 283 0 l 283 378 l 288 382 b 610 297 383 324 468 297 b 956 656 800 306 956 461 b 614 972 956 836 813 972 l 85 972 z m 540 457 b 283 513 432 457 363 476 l 283 797 l 558 797 b 757 628 675 797 757 728 b 540 457 757 533 656 457 z "},"Q":{"ha":1135,"x_min":0,"x_max":0,"o":"m 1025 -149 l 1025 1 b 583 -19 913 -40 726 -50 l 583 -12 b 1079 486 886 -7 1079 214 b 567 990 1079 778 864 990 b 56 482 271 990 56 779 b 1025 -149 56 -29 578 -164 z m 567 160 b 257 486 389 160 257 296 b 567 813 257 676 389 813 b 878 486 747 813 878 676 b 567 160 878 296 747 160 z "},"R":{"ha":993,"x_min":0,"x_max":0,"o":"m 807 -19 b 982 42 881 -19 944 13 l 946 232 b 779 156 906 182 853 156 b 517 367 703 156 649 214 l 522 374 b 640 358 557 364 589 358 b 956 646 819 358 956 482 b 613 972 956 840 821 972 l 85 972 l 85 0 l 282 0 l 282 390 l 290 392 l 436 215 b 807 -19 568 56 653 -19 z m 556 488 b 282 556 446 488 372 514 l 282 808 l 574 808 b 772 653 690 808 772 754 b 556 488 772 553 671 488 z "},"S":{"ha":960,"x_min":0,"x_max":0,"o":"m 494 -18 b 919 299 743 -18 919 118 b 542 568 919 483 778 585 b 251 686 344 553 250 596 b 515 831 253 768 354 831 b 835 753 653 831 768 790 l 835 918 b 488 989 754 957 628 989 b 78 686 251 989 78 854 b 471 418 78 499 221 399 b 744 297 644 431 744 399 b 476 143 744 206 631 143 b 60 264 335 143 172 182 l 43 75 b 494 -18 158 21 369 -18 z "},"T":{"ha":892,"x_min":0,"x_max":0,"o":"m 586 -19 b 839 72 692 -19 776 14 l 813 246 b 626 167 761 196 711 167 b 435 428 478 167 396 279 l 544 814 l 857 814 l 857 972 l 35 972 l 35 814 l 350 814 l 239 386 b 586 -19 182 138 349 -19 z "},"U":{"ha":1082,"x_min":0,"x_max":0,"o":"m 542 -18 b 1000 411 807 -18 1028 144 l 938 972 l 740 972 l 797 421 b 542 160 813 268 689 160 b 288 421 394 160 271 268 l 344 972 l 146 972 l 83 411 b 542 -18 57 144 278 -18 z "},"V":{"ha":1082,"x_min":0,"x_max":0,"o":"m 525 -22 l 556 -22 l 1078 972 l 854 972 l 544 306 l 535 306 l 228 972 l 3 972 z "},"W":{"ha":1485,"x_min":0,"x_max":0,"o":"m 408 -22 l 438 -22 l 738 625 l 747 625 l 1046 -22 l 1076 -22 l 1478 972 l 1256 972 l 1031 408 l 1021 408 l 754 993 l 729 993 l 463 408 l 453 408 l 229 972 l 7 972 z "},"X":{"ha":988,"x_min":0,"x_max":0,"o":"m 8 0 l 215 0 l 489 353 l 499 353 l 774 0 l 978 0 l 606 501 l 963 972 l 761 972 l 497 636 l 489 636 l 225 972 l 25 972 l 382 501 z "},"Y":{"ha":1028,"x_min":0,"x_max":0,"o":"m 417 0 l 614 0 l 614 375 l 1024 972 l 797 972 l 517 569 l 508 569 l 231 972 l 3 972 l 417 372 z "},"Z":{"ha":954,"x_min":0,"x_max":0,"o":"m 656 -18 b 900 11 743 -19 826 -8 l 900 204 b 683 172 829 183 763 172 b 400 189 586 172 518 206 l 397 194 l 885 949 l 885 972 l 69 972 l 69 778 l 531 778 l 536 769 l 49 22 l 49 0 b 315 26 131 18 221 26 b 656 -18 438 26 533 -17 z "},"[":{"ha":831,"x_min":0,"x_max":0,"o":"m 140 274 l 140 274 b 183 204 176 274 183 249 b 140 135 183 161 176 135 b 128 136 136 135 131 135 l 128 272 b 140 274 132 274 136 274 z m 351 224 l 296 224 l 296 271 l 361 271 l 361 306 l 256 306 l 256 104 l 361 104 l 361 138 l 296 138 l 296 190 l 351 190 z m 138 101 l 138 101 b 224 204 200 101 224 133 b 139 308 224 274 201 308 b 88 303 125 308 106 306 l 88 104 b 138 101 106 101 126 101 z m 397 306 l 397 306 b 388 104 393 257 389 169 l 426 104 b 429 249 426 151 428 201 l 431 249 l 458 135 l 496 135 l 524 249 b 528 104 526 201 528 151 l 568 104 b 560 306 565 169 563 257 l 504 306 l 478 194 l 451 306 z m 669 101 l 669 101 b 744 204 725 101 744 133 b 669 308 744 275 725 308 b 596 204 614 308 596 275 b 669 101 596 133 614 101 z m 669 274 b 704 204 699 274 704 250 b 669 135 704 160 699 135 b 636 204 642 135 636 160 b 669 274 636 250 642 274 z m 656 689 l 656 689 b 439 429 540 689 439 429 b 669 529 497 486 569 518 b 742 601 699 533 742 558 b 656 689 742 631 728 689 z m 193 617 l 193 617 b 107 529 136 617 107 574 b 193 457 107 486 150 457 b 410 357 281 457 353 429 b 193 617 410 357 324 617 z m 436 824 l 436 824 b 313 822 394 864 343 853 b 325 710 283 790 294 740 b 410 486 388 650 419 578 b 436 824 410 486 529 733 z "},"\\":{"ha":831,"x_min":0,"x_max":0,"o":"m 140 274 l 140 274 b 183 204 176 274 183 249 b 140 135 183 161 176 135 b 128 136 136 135 131 135 l 128 272 b 140 274 132 274 136 274 z m 351 224 l 296 224 l 296 271 l 361 271 l 361 306 l 256 306 l 256 104 l 361 104 l 361 138 l 296 138 l 296 190 l 351 190 z m 138 101 l 138 101 b 224 204 200 101 224 133 b 139 308 224 274 201 308 b 88 303 125 308 106 306 l 88 104 b 138 101 106 101 126 101 z m 397 306 l 397 306 b 388 104 393 257 389 169 l 426 104 b 429 249 426 151 428 201 l 431 249 l 458 135 l 496 135 l 524 249 b 528 104 526 201 528 151 l 568 104 b 560 306 565 169 563 257 l 504 306 l 478 194 l 451 306 z m 669 101 l 669 101 b 744 204 725 101 744 133 b 669 308 744 275 725 308 b 596 204 614 308 596 275 b 669 101 596 133 614 101 z m 669 274 b 704 204 699 274 704 250 b 669 135 704 160 699 135 b 636 204 642 135 636 160 b 669 274 636 250 642 274 z m 656 689 l 656 689 b 439 429 540 689 439 429 b 669 529 497 486 569 518 b 742 601 699 533 742 558 b 656 689 742 631 728 689 z m 193 617 l 193 617 b 107 529 136 617 107 574 b 193 457 107 486 150 457 b 410 357 281 457 353 429 b 193 617 410 357 324 617 z m 436 824 l 436 824 b 313 822 394 864 343 853 b 325 710 283 790 294 740 b 410 486 388 650 419 578 b 436 824 410 486 529 733 z "},"]":{"ha":831,"x_min":0,"x_max":0,"o":"m 140 274 l 140 274 b 183 204 176 274 183 249 b 140 135 183 161 176 135 b 128 136 136 135 131 135 l 128 272 b 140 274 132 274 136 274 z m 351 224 l 296 224 l 296 271 l 361 271 l 361 306 l 256 306 l 256 104 l 361 104 l 361 138 l 296 138 l 296 190 l 351 190 z m 138 101 l 138 101 b 224 204 200 101 224 133 b 139 308 224 274 201 308 b 88 303 125 308 106 306 l 88 104 b 138 101 106 101 126 101 z m 397 306 l 397 306 b 388 104 393 257 389 169 l 426 104 b 429 249 426 151 428 201 l 431 249 l 458 135 l 496 135 l 524 249 b 528 104 526 201 528 151 l 568 104 b 560 306 565 169 563 257 l 504 306 l 478 194 l 451 306 z m 669 101 l 669 101 b 744 204 725 101 744 133 b 669 308 744 275 725 308 b 596 204 614 308 596 275 b 669 101 596 133 614 101 z m 669 274 b 704 204 699 274 704 250 b 669 135 704 160 699 135 b 636 204 642 135 636 160 b 669 274 636 250 642 274 z m 656 689 l 656 689 b 439 429 540 689 439 429 b 669 529 497 486 569 518 b 742 601 699 533 742 558 b 656 689 742 631 728 689 z m 193 617 l 193 617 b 107 529 136 617 107 574 b 193 457 107 486 150 457 b 410 357 281 457 353 429 b 193 617 410 357 324 617 z m 436 824 l 436 824 b 313 822 394 864 343 853 b 325 710 283 790 294 740 b 410 486 388 650 419 578 b 436 824 410 486 529 733 z "},"^":{"ha":831,"x_min":0,"x_max":0,"o":"m 140 274 l 140 274 b 183 204 176 274 183 249 b 140 135 183 161 176 135 b 128 136 136 135 131 135 l 128 272 b 140 274 132 274 136 274 z m 351 224 l 296 224 l 296 271 l 361 271 l 361 306 l 256 306 l 256 104 l 361 104 l 361 138 l 296 138 l 296 190 l 351 190 z m 138 101 l 138 101 b 224 204 200 101 224 133 b 139 308 224 274 201 308 b 88 303 125 308 106 306 l 88 104 b 138 101 106 101 126 101 z m 397 306 l 397 306 b 388 104 393 257 389 169 l 426 104 b 429 249 426 151 428 201 l 431 249 l 458 135 l 496 135 l 524 249 b 528 104 526 201 528 151 l 568 104 b 560 306 565 169 563 257 l 504 306 l 478 194 l 451 306 z m 669 101 l 669 101 b 744 204 725 101 744 133 b 669 308 744 275 725 308 b 596 204 614 308 596 275 b 669 101 596 133 614 101 z m 669 274 b 704 204 699 274 704 250 b 669 135 704 160 699 135 b 636 204 642 135 636 160 b 669 274 636 250 642 274 z m 656 689 l 656 689 b 439 429 540 689 439 429 b 669 529 497 486 569 518 b 742 601 699 533 742 558 b 656 689 742 631 728 689 z m 193 617 l 193 617 b 107 529 136 617 107 574 b 193 457 107 486 150 457 b 410 357 281 457 353 429 b 193 617 410 357 324 617 z m 436 824 l 436 824 b 313 822 394 864 343 853 b 325 710 283 790 294 740 b 410 486 388 650 419 578 b 436 824 410 486 529 733 z "},"_":{"ha":831,"x_min":0,"x_max":0,"o":"m 140 274 l 140 274 b 183 204 176 274 183 249 b 140 135 183 161 176 135 b 128 136 136 135 131 135 l 128 272 b 140 274 132 274 136 274 z m 351 224 l 296 224 l 296 271 l 361 271 l 361 306 l 256 306 l 256 104 l 361 104 l 361 138 l 296 138 l 296 190 l 351 190 z m 138 101 l 138 101 b 224 204 200 101 224 133 b 139 308 224 274 201 308 b 88 303 125 308 106 306 l 88 104 b 138 101 106 101 126 101 z m 397 306 l 397 306 b 388 104 393 257 389 169 l 426 104 b 429 249 426 151 428 201 l 431 249 l 458 135 l 496 135 l 524 249 b 528 104 526 201 528 151 l 568 104 b 560 306 565 169 563 257 l 504 306 l 478 194 l 451 306 z m 669 101 l 669 101 b 744 204 725 101 744 133 b 669 308 744 275 725 308 b 596 204 614 308 596 275 b 669 101 596 133 614 101 z m 669 274 b 704 204 699 274 704 250 b 669 135 704 160 699 135 b 636 204 642 135 636 160 b 669 274 636 250 642 274 z m 656 689 l 656 689 b 439 429 540 689 439 429 b 669 529 497 486 569 518 b 742 601 699 533 742 558 b 656 689 742 631 728 689 z m 193 617 l 193 617 b 107 529 136 617 107 574 b 193 457 107 486 150 457 b 410 357 281 457 353 429 b 193 617 410 357 324 617 z m 436 824 l 436 824 b 313 822 394 864 343 853 b 325 710 283 790 294 740 b 410 486 388 650 419 578 b 436 824 410 486 529 733 z "},"`":{"ha":831,"x_min":0,"x_max":0,"o":"m 140 274 l 140 274 b 183 204 176 274 183 249 b 140 135 183 161 176 135 b 128 136 136 135 131 135 l 128 272 b 140 274 132 274 136 274 z m 351 224 l 296 224 l 296 271 l 361 271 l 361 306 l 256 306 l 256 104 l 361 104 l 361 138 l 296 138 l 296 190 l 351 190 z m 138 101 l 138 101 b 224 204 200 101 224 133 b 139 308 224 274 201 308 b 88 303 125 308 106 306 l 88 104 b 138 101 106 101 126 101 z m 397 306 l 397 306 b 388 104 393 257 389 169 l 426 104 b 429 249 426 151 428 201 l 431 249 l 458 135 l 496 135 l 524 249 b 528 104 526 201 528 151 l 568 104 b 560 306 565 169 563 257 l 504 306 l 478 194 l 451 306 z m 669 101 l 669 101 b 744 204 725 101 744 133 b 669 308 744 275 725 308 b 596 204 614 308 596 275 b 669 101 596 133 614 101 z m 669 274 b 704 204 699 274 704 250 b 669 135 704 160 699 135 b 636 204 642 135 636 160 b 669 274 636 250 642 274 z m 656 689 l 656 689 b 439 429 540 689 439 429 b 669 529 497 486 569 518 b 742 601 699 533 742 558 b 656 689 742 631 728 689 z m 193 617 l 193 617 b 107 529 136 617 107 574 b 193 457 107 486 150 457 b 410 357 281 457 353 429 b 193 617 410 357 324 617 z m 436 824 l 436 824 b 313 822 394 864 343 853 b 325 710 283 790 294 740 b 410 486 388 650 419 578 b 436 824 410 486 529 733 z "},"a":{"ha":967,"x_min":0,"x_max":0,"o":"m 404 -18 b 701 131 532 -18 638 40 l 710 131 b 697 0 707 86 703 44 l 882 0 l 882 742 l 849 742 l 739 578 l 731 578 b 419 758 671 690 554 758 b 53 371 211 758 53 594 b 404 -18 53 140 204 -18 z m 472 125 b 226 372 335 125 226 226 b 472 619 226 518 336 619 b 717 372 608 619 717 518 b 472 125 717 226 608 125 z "},"b":{"ha":979,"x_min":0,"x_max":0,"o":"m 558 -18 b 926 372 765 -18 926 147 b 560 758 926 597 767 758 b 261 613 424 758 325 703 l 254 613 l 254 944 l 83 944 l 83 0 l 268 0 b 257 129 263 44 258 85 l 263 129 b 558 -18 326 39 425 -18 z m 503 121 b 256 372 364 121 256 225 b 503 624 256 519 364 624 b 751 372 642 624 751 519 b 503 121 751 225 642 121 z "},"c":{"ha":811,"x_min":0,"x_max":0,"o":"m 488 -18 b 776 64 596 -18 703 14 l 776 222 b 506 129 700 168 610 129 b 224 374 344 129 224 228 b 482 619 224 519 335 619 b 707 532 571 619 653 586 l 756 656 b 464 758 686 725 569 758 b 51 372 221 758 51 596 b 488 -18 51 143 233 -18 z "},"d":{"ha":979,"x_min":0,"x_max":0,"o":"m 418 -18 b 714 129 553 -18 651 39 l 721 129 b 710 0 719 85 715 44 l 894 0 l 894 944 l 724 944 l 724 613 l 717 613 b 418 758 653 703 554 758 b 51 372 211 758 51 597 b 418 -18 51 147 211 -18 z m 474 121 b 226 372 336 121 226 225 b 474 624 226 519 336 624 b 722 372 613 624 722 519 b 474 121 722 225 613 121 z "},"e":{"ha":908,"x_min":0,"x_max":0,"o":"m 476 -18 b 800 85 601 -18 719 14 l 767 213 b 501 113 693 147 607 113 b 219 314 346 113 228 192 l 856 314 b 858 376 857 325 858 363 b 457 758 858 596 688 758 b 51 372 224 758 51 596 b 476 -18 51 158 200 -18 z m 217 425 b 456 626 226 546 328 626 b 697 425 586 626 689 544 z "},"f":{"ha":638,"x_min":0,"x_max":0,"o":"m 228 -1 l 399 -1 l 399 610 l 622 610 l 622 742 l 453 742 b 275 821 358 742 275 776 b 439 886 275 867 328 886 b 565 863 500 886 549 869 l 574 958 b 371 989 547 965 463 989 b 88 860 158 989 88 936 b 246 751 88 804 157 754 l 246 742 l 19 742 l 19 610 l 228 610 z "},"g":{"ha":921,"x_min":0,"x_max":0,"o":"m 490 -332 b 853 -274 610 -332 767 -307 l 811 -136 b 482 -200 731 -174 585 -200 b 206 -103 324 -200 206 -178 b 361 -6 206 -46 268 -11 b 458 -15 382 -10 435 -15 b 861 368 693 -15 861 147 b 703 665 861 496 800 601 l 703 674 l 863 722 l 863 753 l 458 753 b 56 372 225 753 56 593 b 204 69 56 242 113 135 l 204 61 b 53 -114 114 35 53 -22 b 490 -332 53 -253 214 -332 z m 458 115 b 211 365 321 115 211 219 b 458 611 211 510 321 611 b 706 364 596 611 706 510 b 458 115 706 219 596 115 z "},"h":{"ha":925,"x_min":0,"x_max":0,"o":"m 83 0 l 254 0 l 254 394 b 463 614 254 522 346 614 b 674 390 581 614 674 522 l 674 0 l 844 0 l 844 422 b 515 758 844 626 717 758 b 263 628 414 758 321 711 l 254 628 l 254 944 l 83 944 z "},"i":{"ha":332,"x_min":0,"x_max":0,"o":"m 167 885 b 268 957 231 885 268 913 b 167 1028 268 1000 231 1028 b 64 957 103 1028 64 1000 b 167 885 64 913 103 885 z m 82 0 l 254 0 l 254 742 l 82 742 z "},"j":{"ha":343,"x_min":0,"x_max":0,"o":"m 178 885 b 279 957 242 885 279 913 b 178 1028 279 1000 242 1028 b 75 957 113 1028 75 1000 b 178 885 75 913 113 885 z m -15 -332 b 264 -40 167 -332 264 -226 l 264 742 l 93 742 l 93 -29 b -68 -204 93 -144 42 -204 b -169 -187 -106 -204 -139 -197 l -175 -312 b -15 -332 -125 -325 -71 -332 z "},"k":{"ha":861,"x_min":0,"x_max":0,"o":"m 83 0 l 254 0 l 254 253 l 313 353 b 414 397 343 378 376 397 b 535 297 464 397 511 363 l 592 147 b 675 0 613 92 636 42 l 872 0 b 782 157 833 51 804 101 l 699 363 b 503 519 664 453 615 519 b 389 485 461 519 426 510 l 383 488 l 394 507 b 600 632 439 582 499 632 b 767 583 665 632 726 614 l 790 717 b 611 763 751 742 679 763 b 300 585 463 763 371 711 l 261 514 l 254 514 l 254 944 l 83 944 z "},"l":{"ha":338,"x_min":0,"x_max":0,"o":"m 83 0 l 254 0 l 254 944 l 83 944 z "},"m":{"ha":1358,"x_min":0,"x_max":0,"o":"m 83 0 l 247 0 l 247 438 b 425 614 253 542 328 614 b 599 426 535 614 599 540 l 599 0 l 763 0 l 763 431 b 938 614 764 539 839 614 b 1113 426 1038 614 1113 538 l 1113 0 l 1276 0 l 1276 460 b 993 758 1276 638 1156 758 b 736 601 881 758 786 703 l 728 601 b 472 758 685 703 594 758 b 218 613 363 758 267 707 l 213 613 l 118 742 l 83 742 z "},"n":{"ha":925,"x_min":0,"x_max":0,"o":"m 83 0 l 254 0 l 254 390 b 464 614 254 524 346 614 b 674 390 582 614 674 522 l 674 0 l 844 0 l 844 426 b 514 758 844 626 697 758 b 228 594 393 758 285 700 l 221 594 l 118 742 l 83 742 z "},"o":{"ha":929,"x_min":0,"x_max":0,"o":"m 465 -18 b 878 371 704 -18 878 144 b 465 758 878 597 704 758 b 51 371 225 758 51 597 b 465 -18 51 144 225 -18 z m 465 125 b 222 371 331 125 222 225 b 465 615 222 517 331 615 b 707 371 600 615 707 517 b 465 125 707 225 600 125 z "},"p":{"ha":961,"x_min":0,"x_max":0,"o":"m 83 -311 l 254 -311 l 254 131 l 263 131 b 561 -18 326 40 433 -18 b 913 371 761 -18 913 140 b 546 758 913 594 754 758 b 233 578 410 758 294 690 l 226 578 l 115 742 l 83 742 z m 494 125 b 250 372 358 125 250 226 b 494 619 250 518 358 619 b 738 372 631 619 738 518 b 494 125 738 226 631 125 z "},"q":{"ha":961,"x_min":0,"x_max":0,"o":"m 707 -311 l 878 -311 l 878 742 l 846 742 l 735 578 l 728 578 b 414 758 667 690 550 758 b 49 371 207 758 49 594 b 400 -18 49 140 201 -18 b 697 131 528 -18 635 40 l 707 131 z m 467 125 b 222 372 331 125 222 226 b 467 619 222 518 331 619 b 711 372 603 619 711 518 b 467 125 711 226 603 125 z "},"r":{"ha":625,"x_min":0,"x_max":0,"o":"m 83 0 l 254 0 l 254 369 b 497 614 258 517 350 614 b 599 589 553 614 581 594 l 604 742 b 496 758 569 753 540 758 b 231 600 374 758 279 701 l 222 600 l 118 742 l 83 742 z "},"s":{"ha":746,"x_min":0,"x_max":0,"o":"m 379 -18 b 693 204 575 -18 693 76 b 444 424 693 325 615 388 b 231 544 286 458 231 489 b 411 632 231 597 289 632 b 653 583 497 632 592 611 l 653 714 b 376 758 578 740 489 758 b 64 549 179 758 64 660 b 310 328 64 432 149 361 b 525 201 467 296 525 265 b 347 111 525 144 472 111 b 57 206 242 111 133 150 l 44 65 b 379 -18 125 19 264 -18 z "},"t":{"ha":688,"x_min":0,"x_max":0,"o":"m 451 -18 b 656 17 546 -18 618 6 l 647 160 b 503 131 628 151 576 131 b 339 296 393 131 339 182 l 339 606 l 651 606 l 651 742 l 339 742 l 339 913 l 308 913 l 14 696 l 14 610 l 169 610 l 169 257 b 451 -18 169 74 279 -18 z "},"u":{"ha":925,"x_min":0,"x_max":0,"o":"m 399 -18 b 658 104 514 -18 604 26 l 667 104 b 661 0 667 69 664 36 l 842 0 l 842 742 l 671 742 l 671 351 b 463 128 671 219 579 128 b 253 351 339 128 253 214 l 253 742 l 81 742 l 81 315 b 399 -18 81 106 215 -18 z "},"v":{"ha":826,"x_min":0,"x_max":0,"o":"m 388 -22 l 439 -22 l 824 742 l 638 742 l 418 243 l 408 243 l 189 742 l 3 742 z "},"w":{"ha":1182,"x_min":0,"x_max":0,"o":"m 319 -22 l 375 -22 l 586 456 l 596 456 l 807 -22 l 864 -22 l 1171 742 l 986 742 l 829 310 l 822 310 l 613 763 l 569 763 l 361 310 l 353 310 l 197 742 l 11 742 z "},"x":{"ha":804,"x_min":0,"x_max":0,"o":"m 13 0 l 197 0 l 397 264 l 406 264 l 608 0 l 793 0 l 503 383 l 776 742 l 597 742 l 406 490 l 397 490 l 206 742 l 26 742 l 301 383 z "},"y":{"ha":925,"x_min":0,"x_max":0,"o":"m 400 -332 b 842 51 665 -332 842 -197 l 842 742 l 671 742 l 671 361 b 463 138 671 229 579 138 b 253 361 339 138 253 224 l 253 742 l 81 742 l 81 324 b 399 -8 81 114 215 -8 b 663 124 514 -8 607 42 l 671 124 l 671 81 b 381 -194 671 -108 560 -194 b 114 -139 307 -194 181 -169 l 94 -282 b 400 -332 176 -310 318 -332 z "},"z":{"ha":851,"x_min":0,"x_max":0,"o":"m 54 0 l 797 0 l 797 133 l 328 133 l 324 140 l 767 696 l 767 742 l 93 742 l 93 608 l 497 608 l 501 601 l 54 46 z "},"{":{"ha":831,"x_min":0,"x_max":0,"o":"m 140 274 l 140 274 b 183 204 176 274 183 249 b 140 135 183 161 176 135 b 128 136 136 135 131 135 l 128 272 b 140 274 132 274 136 274 z m 351 224 l 296 224 l 296 271 l 361 271 l 361 306 l 256 306 l 256 104 l 361 104 l 361 138 l 296 138 l 296 190 l 351 190 z m 138 101 l 138 101 b 224 204 200 101 224 133 b 139 308 224 274 201 308 b 88 303 125 308 106 306 l 88 104 b 138 101 106 101 126 101 z m 397 306 l 397 306 b 388 104 393 257 389 169 l 426 104 b 429 249 426 151 428 201 l 431 249 l 458 135 l 496 135 l 524 249 b 528 104 526 201 528 151 l 568 104 b 560 306 565 169 563 257 l 504 306 l 478 194 l 451 306 z m 669 101 l 669 101 b 744 204 725 101 744 133 b 669 308 744 275 725 308 b 596 204 614 308 596 275 b 669 101 596 133 614 101 z m 669 274 b 704 204 699 274 704 250 b 669 135 704 160 699 135 b 636 204 642 135 636 160 b 669 274 636 250 642 274 z m 656 689 l 656 689 b 439 429 540 689 439 429 b 669 529 497 486 569 518 b 742 601 699 533 742 558 b 656 689 742 631 728 689 z m 193 617 l 193 617 b 107 529 136 617 107 574 b 193 457 107 486 150 457 b 410 357 281 457 353 429 b 193 617 410 357 324 617 z m 436 824 l 436 824 b 313 822 394 864 343 853 b 325 710 283 790 294 740 b 410 486 388 650 419 578 b 436 824 410 486 529 733 z "},"|":{"ha":831,"x_min":0,"x_max":0,"o":"m 140 274 l 140 274 b 183 204 176 274 183 249 b 140 135 183 161 176 135 b 128 136 136 135 131 135 l 128 272 b 140 274 132 274 136 274 z m 351 224 l 296 224 l 296 271 l 361 271 l 361 306 l 256 306 l 256 104 l 361 104 l 361 138 l 296 138 l 296 190 l 351 190 z m 138 101 l 138 101 b 224 204 200 101 224 133 b 139 308 224 274 201 308 b 88 303 125 308 106 306 l 88 104 b 138 101 106 101 126 101 z m 397 306 l 397 306 b 388 104 393 257 389 169 l 426 104 b 429 249 426 151 428 201 l 431 249 l 458 135 l 496 135 l 524 249 b 528 104 526 201 528 151 l 568 104 b 560 306 565 169 563 257 l 504 306 l 478 194 l 451 306 z m 669 101 l 669 101 b 744 204 725 101 744 133 b 669 308 744 275 725 308 b 596 204 614 308 596 275 b 669 101 596 133 614 101 z m 669 274 b 704 204 699 274 704 250 b 669 135 704 160 699 135 b 636 204 642 135 636 160 b 669 274 636 250 642 274 z m 656 689 l 656 689 b 439 429 540 689 439 429 b 669 529 497 486 569 518 b 742 601 699 533 742 558 b 656 689 742 631 728 689 z m 193 617 l 193 617 b 107 529 136 617 107 574 b 193 457 107 486 150 457 b 410 357 281 457 353 429 b 193 617 410 357 324 617 z m 436 824 l 436 824 b 313 822 394 864 343 853 b 325 710 283 790 294 740 b 410 486 388 650 419 578 b 436 824 410 486 529 733 z "},"}":{"ha":831,"x_min":0,"x_max":0,"o":"m 140 274 l 140 274 b 183 204 176 274 183 249 b 140 135 183 161 176 135 b 128 136 136 135 131 135 l 128 272 b 140 274 132 274 136 274 z m 351 224 l 296 224 l 296 271 l 361 271 l 361 306 l 256 306 l 256 104 l 361 104 l 361 138 l 296 138 l 296 190 l 351 190 z m 138 101 l 138 101 b 224 204 200 101 224 133 b 139 308 224 274 201 308 b 88 303 125 308 106 306 l 88 104 b 138 101 106 101 126 101 z m 397 306 l 397 306 b 388 104 393 257 389 169 l 426 104 b 429 249 426 151 428 201 l 431 249 l 458 135 l 496 135 l 524 249 b 528 104 526 201 528 151 l 568 104 b 560 306 565 169 563 257 l 504 306 l 478 194 l 451 306 z m 669 101 l 669 101 b 744 204 725 101 744 133 b 669 308 744 275 725 308 b 596 204 614 308 596 275 b 669 101 596 133 614 101 z m 669 274 b 704 204 699 274 704 250 b 669 135 704 160 699 135 b 636 204 642 135 636 160 b 669 274 636 250 642 274 z m 656 689 l 656 689 b 439 429 540 689 439 429 b 669 529 497 486 569 518 b 742 601 699 533 742 558 b 656 689 742 631 728 689 z m 193 617 l 193 617 b 107 529 136 617 107 574 b 193 457 107 486 150 457 b 410 357 281 457 353 429 b 193 617 410 357 324 617 z m 436 824 l 436 824 b 313 822 394 864 343 853 b 325 710 283 790 294 740 b 410 486 388 650 419 578 b 436 824 410 486 529 733 z "},"~":{"ha":831,"x_min":0,"x_max":0,"o":"m 140 274 l 140 274 b 183 204 176 274 183 249 b 140 135 183 161 176 135 b 128 136 136 135 131 135 l 128 272 b 140 274 132 274 136 274 z m 351 224 l 296 224 l 296 271 l 361 271 l 361 306 l 256 306 l 256 104 l 361 104 l 361 138 l 296 138 l 296 190 l 351 190 z m 138 101 l 138 101 b 224 204 200 101 224 133 b 139 308 224 274 201 308 b 88 303 125 308 106 306 l 88 104 b 138 101 106 101 126 101 z m 397 306 l 397 306 b 388 104 393 257 389 169 l 426 104 b 429 249 426 151 428 201 l 431 249 l 458 135 l 496 135 l 524 249 b 528 104 526 201 528 151 l 568 104 b 560 306 565 169 563 257 l 504 306 l 478 194 l 451 306 z m 669 101 l 669 101 b 744 204 725 101 744 133 b 669 308 744 275 725 308 b 596 204 614 308 596 275 b 669 101 596 133 614 101 z m 669 274 b 704 204 699 274 704 250 b 669 135 704 160 699 135 b 636 204 642 135 636 160 b 669 274 636 250 642 274 z m 656 689 l 656 689 b 439 429 540 689 439 429 b 669 529 497 486 569 518 b 742 601 699 533 742 558 b 656 689 742 631 728 689 z m 193 617 l 193 617 b 107 529 136 617 107 574 b 193 457 107 486 150 457 b 410 357 281 457 353 429 b 193 617 410 357 324 617 z m 436 824 l 436 824 b 313 822 394 864 343 853 b 325 710 283 790 294 740 b 410 486 388 650 419 578 b 436 824 410 486 529 733 z "}}}
